<svg width="41" height="34" viewBox="0 0 41 34" fill="none" xmlns="http://www.w3.org/2000/svg">
<path d="M20.4394 23.8976C20.8176 23.8976 21.1269 24.1967 21.1269 24.5685V25.8927C21.1269 26.2645 20.8176 26.5636 20.4394 26.5636C20.0613 26.5635 19.7528 26.2644 19.7528 25.8927V24.5685C19.7528 24.1968 20.0613 23.8977 20.4394 23.8976Z" fill="white" stroke="white" stroke-width="0.1"/>
<path d="M23.934 0.0570068C23.9961 0.0657377 25.3225 0.2603 26.6391 1.26892C27.9932 2.30638 28.6822 3.68478 29.0111 5.02087C31.0209 5.82847 32.8233 7.10912 34.2318 8.73669C35.6948 10.4273 36.7064 12.4617 37.1576 14.6195L37.1586 14.6234H38.7836L38.9193 14.6293C39.2327 14.6592 39.5236 14.7929 39.7494 15.0131C40.0076 15.2647 40.1497 15.5999 40.1498 15.9564V21.2562C40.1498 21.9927 39.5359 22.5892 38.7836 22.5892H36.2953C34.6318 26.2958 31.2731 29.152 27.0971 30.1537L26.7768 31.6107C26.5757 32.5256 25.7341 33.1877 24.7768 33.1879H21.7982C20.6717 33.1877 19.7526 32.2942 19.7523 31.1927V30.5385H13.6459C12.9649 30.5385 12.2847 30.4868 11.6147 30.389V31.1927C11.6145 32.2943 10.6955 33.1879 9.56876 33.1879H6.85782C6.19429 33.1877 5.57016 32.874 5.18887 32.347C3.98359 30.6814 0.0502156 24.6711 0.0502014 17.2816C0.0502014 13.9838 1.29956 10.8227 3.56876 8.38123C5.71922 6.06777 8.61514 4.5775 11.7631 4.15173C12.3094 2.17247 14.1654 0.71228 16.3637 0.71228C18.5143 0.712416 20.3349 2.11082 20.9242 4.02478H23.1498V0.721069C23.1498 0.526039 23.2365 0.340587 23.3871 0.213257C23.5376 0.08606 23.7377 0.0297219 23.934 0.0570068ZM24.5238 6.68298C24.5237 7.05466 24.2145 7.35388 23.8363 7.35388C23.4584 7.35368 23.15 7.05453 23.1498 6.68298V5.36658H21.1264C21.1255 5.81144 21.057 6.25146 20.9291 6.67419H21.1195C21.4975 6.6744 21.806 6.97346 21.8061 7.34509C21.8061 7.71677 21.4976 8.01579 21.1195 8.01599H11.6078C11.2296 8.01599 10.9203 7.71689 10.9203 7.34509C10.9204 6.97333 11.2296 6.67419 11.6078 6.67419H11.7963C11.6846 6.30454 11.6199 5.92142 11.6049 5.53357C8.90999 5.97557 6.44025 7.28891 4.58633 9.28357C2.54687 11.4777 1.42422 14.3182 1.42422 17.2816C1.42427 24.2734 5.16403 29.9874 6.31094 31.5726C6.43644 31.7462 6.63533 31.846 6.85782 31.8461H9.56876C9.94026 31.8461 10.2404 31.5519 10.2406 31.1927V24.5677C10.2409 24.1961 10.5501 23.8969 10.9281 23.8969C11.3061 23.897 11.6144 24.1962 11.6147 24.5677V29.0306C12.283 29.1394 12.964 29.1967 13.6459 29.1967H19.7523V28.5424C19.7525 28.1707 20.0617 27.8715 20.4398 27.8715C20.8179 27.8716 21.1262 28.1707 21.1264 28.5424V31.1927C21.1266 31.5518 21.4269 31.846 21.7982 31.8461H24.7768C25.0919 31.8459 25.3672 31.6278 25.433 31.3295L26.9506 24.4271C27.0306 24.0642 27.3966 23.835 27.766 23.9125C28.1359 23.99 28.3733 24.3459 28.2934 24.7094L27.4213 28.6742C32.2855 27.224 35.7741 22.932 36.0414 17.9095C36.0611 17.5383 36.3856 17.2552 36.7631 17.2738C37.1408 17.2929 37.4333 17.6076 37.4135 17.9789C37.3534 19.1083 37.1458 20.2038 36.81 21.2474H38.7758V15.9652H37.1488C36.505 15.9653 35.9425 15.513 35.8119 14.8881C35.4068 12.9505 34.4977 11.1233 33.183 9.60388C32.0977 8.34973 30.7518 7.32486 29.2523 6.59998C29.2703 6.8577 29.2797 7.10732 29.2797 7.34509C29.2797 7.71689 28.9704 8.01599 28.5922 8.01599C28.2142 8.01579 27.9057 7.71677 27.9057 7.34509C27.9056 5.35894 27.3408 4.02949 26.6293 3.14197C25.9436 2.28673 25.1184 1.839 24.5238 1.60974V6.68298ZM16.3637 2.05408C14.4936 2.05408 12.9742 3.5375 12.974 5.35779C12.974 5.81266 13.0721 6.26087 13.2563 6.67419L19.4701 6.67419C19.6544 6.26101 19.7523 5.81269 19.7523 5.35779C19.7522 3.5377 18.2335 2.05428 16.3637 2.05408Z" fill="white" stroke="white" stroke-width="0.1"/>
<path d="M30.6625 13.2987C31.8436 13.2989 32.9098 14.0049 33.3129 15.0594C33.4461 15.4077 33.2636 15.7947 32.9086 15.9237C32.8299 15.9523 32.7489 15.9657 32.6693 15.9657C32.3916 15.9657 32.1292 15.7996 32.0258 15.5292C31.8234 14.9998 31.2764 14.6407 30.6625 14.6405C30.0484 14.6405 29.5008 14.9996 29.2982 15.5292C29.1654 15.8767 28.7699 16.0526 28.4154 15.9237C28.0604 15.7947 27.8779 15.4078 28.0111 15.0594C28.4146 14.0047 29.4812 13.2987 30.6625 13.2987Z" fill="white" stroke="white" stroke-width="0.1"/>
<path d="M16.3634 11.6427C16.7416 11.6428 17.05 11.9419 17.05 12.3136V12.34C18.0126 12.4378 18.8543 12.7385 19.4591 13.1749C20.0732 13.6181 20.4473 14.2041 20.4474 14.8595C20.4474 15.2313 20.1381 15.5304 19.7599 15.5304C19.3819 15.5302 19.0734 15.2312 19.0734 14.8595C19.0733 14.6312 18.8759 14.375 18.505 14.1534C18.1487 13.9406 17.6449 13.7687 17.05 13.6915V16.7697C17.8199 16.982 18.6602 17.2527 19.3117 17.6945C19.9757 18.1448 20.4473 18.7759 20.4474 19.7032C20.4474 20.3588 20.0734 20.9456 19.4591 21.3888C18.8543 21.8252 18.0125 22.125 17.05 22.2228V22.2501C17.0498 22.6217 16.7415 22.9209 16.3634 22.921C15.9853 22.921 15.6761 22.6218 15.6759 22.2501V22.2228C14.7137 22.1249 13.8724 21.825 13.2677 21.3888C12.6534 20.9456 12.2794 20.3588 12.2794 19.7032C12.2797 19.3317 12.588 19.0325 12.966 19.0323C13.344 19.0323 13.6532 19.3316 13.6535 19.7032C13.6535 19.9317 13.8507 20.1886 14.2218 20.4103C14.578 20.6229 15.0814 20.7931 15.6759 20.8702V17.7921C14.9062 17.5798 14.0664 17.3099 13.4152 16.8683C12.7511 16.4179 12.2794 15.787 12.2794 14.8595C12.2795 14.204 12.6535 13.6181 13.2677 13.1749C13.8725 12.7386 14.7136 12.4378 15.6759 12.34V12.3136C15.6759 11.9418 15.9852 11.6427 16.3634 11.6427ZM17.05 20.8702C17.6448 20.7931 18.1487 20.623 18.505 20.4103C18.8761 20.1887 19.0734 19.9317 19.0734 19.7032C19.0733 19.3815 18.9437 19.1168 18.6203 18.8712C18.3021 18.6298 17.7977 18.4091 17.05 18.1769V20.8702ZM15.6759 13.6915C15.0812 13.7687 14.578 13.9407 14.2218 14.1534C13.8508 14.375 13.6536 14.6311 13.6535 14.8595C13.6535 15.1816 13.7827 15.4468 14.1066 15.6925C14.4246 15.9338 14.9288 16.1527 15.6759 16.3849V13.6915Z" fill="white" stroke="white" stroke-width="0.1"/>
</svg>
